<?xml version="1.0" encoding="utf-8"?>
<!-- Generator: Adobe Illustrator 25.4.1, SVG Export Plug-In . SVG Version: 6.00 Build 0)  -->
<svg version="1.1" id="Layer_1" xmlns="http://www.w3.org/2000/svg" xmlns:xlink="http://www.w3.org/1999/xlink" x="0px" y="0px"
	 viewBox="0 0 1246.8 499.3" style="enable-background:new 0 0 1246.8 499.3;" xml:space="preserve">
<style type="text/css">
	.st0{fill-rule:evenodd;clip-rule:evenodd;fill:#26CC84;}
	.st1{fill-rule:evenodd;clip-rule:evenodd;fill:url(#SVGID_1_);}
	.st2{fill-rule:evenodd;clip-rule:evenodd;fill:url(#SVGID_00000067196965939223381250000002317871991199742876_);}
	.st3{fill-rule:evenodd;clip-rule:evenodd;fill:#A9FFD8;}
	.st4{fill-rule:evenodd;clip-rule:evenodd;fill:#1AAB8B;}
	.st5{fill-rule:evenodd;clip-rule:evenodd;fill:url(#SVGID_00000083050949188875145240000015996084172574229938_);}
	.st6{fill-rule:evenodd;clip-rule:evenodd;fill:url(#SVGID_00000101808555025568035780000004335903991864130202_);}
</style>
<polygon class="st0" points="484.7,162.7 515.4,158.2 506.9,175.3 477.9,163.8 "/>
<g>
	<g>
		<linearGradient id="SVGID_1_" gradientUnits="userSpaceOnUse" x1="944.2034" y1="316.6835" x2="1260.984" y2="169.3118">
			<stop  offset="5.555555e-02" style="stop-color:#26CC84"/>
			<stop  offset="0.9093" style="stop-color:#26CC84;stop-opacity:9.599525e-02"/>
			<stop  offset="1" style="stop-color:#26CC84;stop-opacity:0"/>
		</linearGradient>
		<path class="st1" d="M1136.1,50.9c-28.8,24.4-44.8,53.9-48.6,89.2c-4.5,42.2,8.8,85.5,21.7,127.3c14.6,47.3,28.3,91.9,9.7,121.8
			c-8.2,13.2-19.5,20.7-34.5,22.9c-66,9.7-173.1-83.4-174.2-84.3l-12.8,14.6c4.7,4.1,115,100,189.8,88.9
			c20.7-3.1,36.9-13.7,48.1-31.8c23.3-37.4,8.3-86.2-7.6-137.8c-24.7-80.2-50.3-163.1,57.2-220.1l55.9-23c4.9-2,7.3-7.7,5.3-12.6
			c-2-4.9-7.7-7.3-12.6-5.3l-57.1,23.6C1160.9,32.4,1147.5,41.3,1136.1,50.9z"/>
	</g>
	
		<linearGradient id="SVGID_00000114064067240984907100000014797851024444218519_" gradientUnits="userSpaceOnUse" x1="373.6764" y1="287.9929" x2="218.3865" y2="323.8444" gradientTransform="matrix(-0.7627 0.6467 -0.6467 -0.7627 1286.347 322.1291)">
		<stop  offset="0.1922" style="stop-color:#26CC84"/>
		<stop  offset="1" style="stop-color:#005746"/>
	</linearGradient>
	<path style="fill-rule:evenodd;clip-rule:evenodd;fill:url(#SVGID_00000114064067240984907100000014797851024444218519_);" d="
		M824.9,189.5l80.3,62.8c27.7,21.7,34.6,60.8,15.9,90.7c-20.9,33.4-65.5,42.4-97.8,19.8l-81.9-57.5L824.9,189.5z"/>
	<path class="st3" d="M823.2,187.5c-7.6-5.6-32.9,16-56.4,48.2c-23.5,32.2-36.4,62.8-28.8,68.4c7.6,5.6,32.9-16,56.4-48.2
		C817.9,223.7,830.8,193.1,823.2,187.5z"/>
	<path class="st4" d="M776.9,262.3c-1.6-2.7-8.1-1.9-14.6,1.9c-6.5,3.8-10.5,9-8.9,11.8c1.6,2.7,8.1,1.9,14.6-1.9
		C774.5,270.3,778.5,265,776.9,262.3z"/>
	<path class="st4" d="M804.4,219.3c-1.6-2.7-8.1-1.9-14.6,1.9c-6.5,3.8-10.5,9-8.9,11.8c1.6,2.7,8.1,1.9,14.6-1.9
		C802,227.3,806,222,804.4,219.3z"/>
	<g>
		
			<image style="overflow:visible;" width="190" height="144" xlink:href="F598995B.png"  transform="matrix(1 0 0 1 732.7817 253.4213)">
		</image>
	</g>
	<polygon class="st0" points="928.9,367.4 923.6,338.9 912,354.5 	"/>
	<g>
		
			<linearGradient id="SVGID_00000128471274456539472910000011891275365768322217_" gradientUnits="userSpaceOnUse" x1="93.432" y1="261.5116" x2="600.4407" y2="418.4065">
			<stop  offset="0" style="stop-color:#26CC84;stop-opacity:0"/>
			<stop  offset="9.066223e-02" style="stop-color:#26CC84;stop-opacity:9.599531e-02"/>
			<stop  offset="0.9444" style="stop-color:#26CC84"/>
		</linearGradient>
		<path style="fill-rule:evenodd;clip-rule:evenodd;fill:url(#SVGID_00000128471274456539472910000011891275365768322217_);" d="
			M0,399.4l7.7-17.1c1.3,0.6,33.1,15.3,62.3,67.3c8.4,15,21.4,32.6,35.1,30.9c9.8-1.2,35.9-15.1,65.6-119.6
			C203,246.9,272.3,172.5,376.4,139.6c67.4-21.3,150.8,24.1,154.3,26.1l-9.1,16.4c-1-0.6-80-43.4-139.6-24.6
			c-97.8,30.9-162.8,101-193.4,208.5c-24.4,86-51.1,129.5-81.5,133.1C88,501.4,70,487.8,53.6,458.7C27.4,412.1,0.3,399.5,0,399.4
			L0,399.4z M521.7,182.1C521.7,182.1,521.7,182.1,521.7,182.1l4.5-8.2L521.7,182.1L521.7,182.1z"/>
	</g>
	<g>
		<path class="st0" d="M694,258.7l-49.4-35.8c-4.1-3-5.1-8.8-2.1-12.9c3-4.1,8.8-5.1,12.9-2.1l49.4,35.8c4.1,3,5.1,8.8,2.1,12.9
			C703.9,260.7,698.1,261.7,694,258.7z"/>
	</g>
	<g>
		<path class="st0" d="M655.9,313.5l-49.4-35.8c-4.1-3-5.1-8.8-2.1-12.9c3-4.1,8.8-5.1,12.9-2.1l49.4,35.8c4.1,3,5.1,8.8,2.1,12.9
			C665.8,315.6,660,316.5,655.9,313.5z"/>
	</g>
	
		<linearGradient id="SVGID_00000118355937196491203260000002145379248843537588_" gradientUnits="userSpaceOnUse" x1="697.616" y1="399.2477" x2="767.5491" y2="217.0659" gradientTransform="matrix(-1 0 0 -1 1307.5631 556.9498)">
		<stop  offset="0.1922" style="stop-color:#26CC84"/>
		<stop  offset="0.8333" style="stop-color:#005746"/>
	</linearGradient>
	<path style="fill-rule:evenodd;clip-rule:evenodd;fill:url(#SVGID_00000118355937196491203260000002145379248843537588_);" d="
		M692,199.1l-85.5-55.6c-29.5-19.2-68.8-13-90.9,14.4c-24.8,30.6-18.8,75.7,13,98.9l81,58.8L692,199.1z"/>
	<g>
		
			<image style="overflow:visible;" width="194" height="151" xlink:href="F5989959.png"  transform="matrix(1 0 0 1 505.7816 107.4213)">
		</image>
	</g>
</g>
</svg>
