<?xml version="1.0" encoding="utf-8"?>
<!-- Generator: Adobe Illustrator 28.2.0, SVG Export Plug-In . SVG Version: 6.00 Build 0)  -->
<svg version="1.1" id="Layer_1" xmlns="http://www.w3.org/2000/svg" xmlns:xlink="http://www.w3.org/1999/xlink" x="0px" y="0px"
	 viewBox="0 0 412 412" style="enable-background:new 0 0 412 412;" xml:space="preserve">
<style type="text/css">
	.st0{fill:url(#SVGID_1_);}
	.st1{fill:#FFFFFF;}
</style>
<g>
	
		<linearGradient id="SVGID_1_" gradientUnits="userSpaceOnUse" x1="83.5207" y1="5675.4419" x2="328.4793" y2="5251.1611" gradientTransform="matrix(1 0 0 1 0 -5257.4019)">
		<stop  offset="0" style="stop-color:#19A88C"/>
		<stop  offset="0.9365" style="stop-color:#26CC84"/>
	</linearGradient>
	<path class="st0" d="M312.4,411.9H99.6c-55,0-99.6-44.6-99.6-99.6V99.5c0-55,44.6-99.6,99.6-99.6h212.8c55,0,99.6,44.6,99.6,99.6
		v212.8C412,367.3,367.4,411.9,312.4,411.9z"/>
	<path class="st1" d="M325.9,237.5c-2.8,10.5-6.9,20.3-12.2,29.4c-5.4,9.2-11.9,17.7-19.4,25.2v0c-7.5,7.5-16,14-25.2,19.3
		c-9.1,5.3-19,9.5-29.4,12.2c-10.1,2.7-20.7,4.2-31.6,4.2c-10.9,0-21.5-1.4-31.5-4.2c-10.4-2.7-20.3-6.9-29.4-12.2
		c-9.3-5.3-17.7-11.8-25.3-19.3c-7.5-7.5-14-16-19.4-25.3c-5.3-9.1-9.5-19-12.2-29.4c-2.8-10.1-4.2-20.6-4.2-31.5
		c0-10.9,1.4-21.5,4.2-31.6c2.7-10.4,6.9-20.3,12.2-29.4c5.3-9.3,11.8-17.7,19.3-25.3c7.5-7.5,16-14,25.3-19.3
		c9.1-5.3,19-9.5,29.4-12.2c10.1-2.7,20.6-4.2,31.5-4.2c10.9,0,21.5,1.4,31.6,4.2c10.4,2.8,20.2,6.9,29.4,12.2
		c9.3,5.3,17.8,11.9,25.2,19.4c7.5,7.5,14,16,19.3,25.2l-42,24.3c-3.2-5.6-7.1-10.6-11.6-15.2c-4.5-4.5-9.6-8.5-15.2-11.7
		c-5.5-3.2-11.4-5.7-17.7-7.3c-6-1.7-12.4-2.5-19-2.5c-6.6,0-12.9,0.8-19,2.5c-6.3,1.7-12.2,4.1-17.7,7.3
		c-5.6,3.2-10.6,7.1-15.2,11.7h0c-4.5,4.5-8.4,9.6-11.6,15.2c-3.2,5.5-5.7,11.4-7.4,17.7c-1.7,6.1-2.5,12.4-2.5,19
		c0,6.6,0.9,12.9,2.5,19c1.7,6.3,4.2,12.2,7.3,17.7c3.2,5.6,7.2,10.7,11.7,15.2c4.5,4.5,9.6,8.5,15.2,11.7
		c5.5,3.2,11.4,5.7,17.7,7.3c6,1.7,12.4,2.5,19,2.5c6.6,0,13-0.8,19-2.5c6.3-1.7,12.2-4.2,17.7-7.3c5.6-3.2,10.7-7.1,15.2-11.7
		L208.1,206v0h0l70.8,19L325.9,237.5z"/>
</g>
</svg>
