<?xml version="1.0" encoding="utf-8"?>
<!-- Generator: Adobe Illustrator 28.2.0, SVG Export Plug-In . SVG Version: 6.00 Build 0)  -->
<svg version="1.1" id="Layer_1" xmlns="http://www.w3.org/2000/svg" xmlns:xlink="http://www.w3.org/1999/xlink" x="0px" y="0px"
	 viewBox="0 0 1419.1 412.2" style="enable-background:new 0 0 1419.1 412.2;" xml:space="preserve">
<style type="text/css">
	.st0{fill:url(#SVGID_1_);}
	.st1{fill:#FFFFFF;}
	.st2{fill:url(#SVGID_00000145055581758324794270000008237333057584089474_);}
	.st3{fill:url(#SVGID_00000062911009239123217290000007054358546214964896_);}
	.st4{fill:url(#SVGID_00000176758696500376466840000007998088123787268994_);}
	.st5{fill:url(#SVGID_00000161633600469915511530000013507852278124297661_);}
	.st6{fill:url(#SVGID_00000090289771959572054630000014440701294357471144_);}
	.st7{fill:url(#SVGID_00000026848332795345990380000018225513081483570829_);}
</style>
<g>
	<g>
		
			<linearGradient id="SVGID_1_" gradientUnits="userSpaceOnUse" x1="83.5207" y1="-5261.5425" x2="328.4793" y2="-4837.2612" gradientTransform="matrix(1 0 0 -1 0 -4843.4019)">
			<stop  offset="0" style="stop-color:#19A88C"/>
			<stop  offset="0.9365" style="stop-color:#26CC84"/>
		</linearGradient>
		<path class="st0" d="M312.4,412H99.6C44.6,412,0,367.4,0,312.4V99.6C0,44.6,44.6,0,99.6,0h212.8c55,0,99.6,44.6,99.6,99.6v212.8
			C412,367.4,367.4,412,312.4,412z"/>
		<path class="st1" d="M133.1,225.1l70.8-19l0,0l0,0l-51.8,51.8c4.5,4.6,9.6,8.5,15.2,11.7c5.5,3.1,11.4,5.6,17.7,7.3
			c6,1.7,12.4,2.5,19,2.5s13-0.8,19-2.5c6.3-1.6,12.2-4.1,17.7-7.3c5.6-3.2,10.7-7.2,15.2-11.7s8.5-9.6,11.7-15.2
			c3.1-5.5,5.6-11.4,7.3-17.7c1.6-6.1,2.5-12.4,2.5-19s-0.8-12.9-2.5-19c-1.7-6.3-4.2-12.2-7.4-17.7c-3.2-5.6-7.1-10.7-11.6-15.2
			l0,0c-4.6-4.6-9.6-8.5-15.2-11.7c-5.5-3.2-11.4-5.6-17.7-7.3c-6.1-1.7-12.4-2.5-19-2.5s-13,0.8-19,2.5c-6.3,1.6-12.2,4.1-17.7,7.3
			c-5.6,3.2-10.7,7.2-15.2,11.7c-4.5,4.6-8.4,9.6-11.6,15.2l-42-24.3c5.3-9.2,11.8-17.7,19.3-25.2c7.4-7.5,15.9-14.1,25.2-19.4
			c9.2-5.3,19-9.4,29.4-12.2c10.1-2.8,20.7-4.2,31.6-4.2s21.4,1.5,31.5,4.2c10.4,2.7,20.3,6.9,29.4,12.2
			c9.3,5.3,17.8,11.8,25.3,19.3c7.5,7.6,14,16,19.3,25.3c5.3,9.1,9.5,19,12.2,29.4c2.8,10.1,4.2,20.7,4.2,31.6s-1.4,21.4-4.2,31.5
			c-2.7,10.4-6.9,20.3-12.2,29.4c-5.4,9.3-11.9,17.8-19.4,25.3c-7.6,7.5-16,14-25.3,19.3c-9.1,5.3-19,9.5-29.4,12.2
			c-10,2.8-20.6,4.2-31.5,4.2c-10.9,0-21.5-1.5-31.6-4.2c-10.4-2.7-20.3-6.9-29.4-12.2c-9.2-5.3-17.7-11.8-25.2-19.3l0,0
			c-7.5-7.5-14-16-19.4-25.2c-5.3-9.1-9.4-18.9-12.2-29.4L133.1,225.1z"/>
	</g>
	<g>
		<g>
			
				<linearGradient id="SVGID_00000116205703378590579960000012682604777074914691_" gradientUnits="userSpaceOnUse" x1="237.3606" y1="-6.3258" x2="1039.1405" y2="450.9947" gradientTransform="matrix(1 0 0 -1 0 414)">
				<stop  offset="0" style="stop-color:#19A88C"/>
				<stop  offset="0.9365" style="stop-color:#26CC84"/>
			</linearGradient>
			<path style="fill:url(#SVGID_00000116205703378590579960000012682604777074914691_);" d="M517.9,290.5
				c-15.2-17.3-22.7-39.4-22.7-66.2c0-27.1,7.5-49.5,22.7-66.8s36.6-26,64.7-26c22.4,0,40.7,6.2,55.2,18.8
				c14.4,12.4,22.7,27.8,24.7,46.4h-41.2c-3.1-16.5-15.2-28.6-38.7-28.6c-29.9,0-46.1,19.8-46.1,56.2c0,36.3,16.2,55.9,46.1,55.9
				c21.4,0,34.3-9.3,38.9-27.6h-33.8v-35.8h76v20.4c0,24-7.5,43-22.7,57.7c-15.2,14.4-34.5,21.7-58.5,21.7
				C554.8,316.6,533.1,307.8,517.9,290.5z"/>
			
				<linearGradient id="SVGID_00000084506859253239770690000017731093395634111872_" gradientUnits="userSpaceOnUse" x1="290.6496" y1="-99.7528" x2="1092.4294" y2="357.5677" gradientTransform="matrix(1 0 0 -1 0 414)">
				<stop  offset="0" style="stop-color:#19A88C"/>
				<stop  offset="0.9365" style="stop-color:#26CC84"/>
			</linearGradient>
			<path style="fill:url(#SVGID_00000084506859253239770690000017731093395634111872_);" d="M678,274.3c0-25.8,18-41.5,54.1-41.5
				c11.6,0,21.1,1.3,28.9,3.9v-11.1c0-10.1-6.4-16.5-20.6-16.5c-12.1,0-19.6,6.4-19.6,15h-37.1c0-27.1,20.1-46.9,58-46.9
				c18,0,32.5,4.6,43,13.7s16,20.6,16,34.8v88.7h-35.6l-2.8-12.1h-1c-8.5,9.5-20.4,14.4-36.1,14.4C695.5,316.6,678,299,678,274.3z
				 M761,265v-1.3c-7.2-2.8-15.2-4.4-24.2-4.4c-12.4,0-19.6,5.4-19.6,12.9c0,8,6.4,13.4,18,13.4C751,285.6,761,276.6,761,265z"/>
			
				<linearGradient id="SVGID_00000012450990651852454590000016996659308398592925_" gradientUnits="userSpaceOnUse" x1="319.9469" y1="-151.1172" x2="1121.7268" y2="306.2033" gradientTransform="matrix(1 0 0 -1 0 414)">
				<stop  offset="0" style="stop-color:#19A88C"/>
				<stop  offset="0.9365" style="stop-color:#26CC84"/>
			</linearGradient>
			<path style="fill:url(#SVGID_00000012450990651852454590000016996659308398592925_);" d="M817.4,268.6h39.7c0,8.2,6.7,15,20.1,15
				c13.1,0,19.1-4.4,19.1-9.8s-4.6-8.8-13.7-10.6l-19.8-3.9c-27.6-5.2-41.2-19.3-41.2-42.3s20.6-40,55.4-40c17,0,30.7,4.4,40.7,12.9
				c10.3,8.5,15.5,19.3,15.5,32.2H894c0.3-7.2-5.4-13.9-17.8-13.9c-9.5,0-15.7,4.1-15.7,9.3c0,4.9,3.4,8,10.1,9.3l25.8,4.9
				c24,4.4,40,15.7,40,41.8c0,27.1-23.7,43-59,43C837,316.6,818.2,297.7,817.4,268.6z"/>
			
				<linearGradient id="SVGID_00000125586015440771406360000006471178693012928138_" gradientUnits="userSpaceOnUse" x1="355.8327" y1="-214.0326" x2="1157.6125" y2="243.2879" gradientTransform="matrix(1 0 0 -1 0 414)">
				<stop  offset="0" style="stop-color:#19A88C"/>
				<stop  offset="0.9365" style="stop-color:#26CC84"/>
			</linearGradient>
			<path style="fill:url(#SVGID_00000125586015440771406360000006471178693012928138_);" d="M1059,133.8l62.1,177.9v2.6h-44.9
				l-10.6-34.3h-67L988,314.3h-42.8v-2.6l61.9-177.9L1059,133.8L1059,133.8z M1009.7,244.4h44.9l-21.9-70.1h-1L1009.7,244.4z"/>
			
				<linearGradient id="SVGID_00000090257880070842184010000013931750975818404248_" gradientUnits="userSpaceOnUse" x1="401.0105" y1="-293.2388" x2="1202.7903" y2="164.0817" gradientTransform="matrix(1 0 0 -1 0 414)">
				<stop  offset="0" style="stop-color:#19A88C"/>
				<stop  offset="0.9365" style="stop-color:#26CC84"/>
			</linearGradient>
			<path style="fill:url(#SVGID_00000090257880070842184010000013931750975818404248_);" d="M1136.6,373.3V179.4h35.6l4.1,12.9h1
				c8.5-10.1,20.4-15.2,35.8-15.2c16.5,0,29.6,6.4,39.7,19.6s15,29.9,15,50.3s-4.9,37.1-15,50.3c-9.8,12.9-22.9,19.3-39.7,19.3
				c-15.5,0-27.3-5.2-35.8-15.2h-1v71.9L1136.6,373.3L1136.6,373.3z M1201,211.9c-18.3,0-26.5,14.4-26.5,35.1
				c0,23.2,8.8,34.8,26.5,34.8s26.5-11.6,26.5-34.8C1227.5,226.3,1219.3,211.9,1201,211.9z"/>
			
				<linearGradient id="SVGID_00000094583809269718848760000004337422423805313717_" gradientUnits="userSpaceOnUse" x1="437.9543" y1="-358.0091" x2="1239.7341" y2="99.3114" gradientTransform="matrix(1 0 0 -1 0 414)">
				<stop  offset="0" style="stop-color:#19A88C"/>
				<stop  offset="0.9365" style="stop-color:#26CC84"/>
			</linearGradient>
			<path style="fill:url(#SVGID_00000094583809269718848760000004337422423805313717_);" d="M1287.1,373.3V179.4h35.6l4.1,12.9h1
				c8.5-10.1,20.4-15.2,35.8-15.2c16.5,0,29.6,6.4,39.7,19.6s15,29.9,15,50.3s-4.9,37.1-15,50.3c-9.8,12.9-22.9,19.3-39.7,19.3
				c-15.5,0-27.3-5.2-35.8-15.2h-1v71.9L1287.1,373.3L1287.1,373.3z M1351.5,211.9c-18.3,0-26.5,14.4-26.5,35.1
				c0,23.2,8.8,34.8,26.5,34.8s26.5-11.6,26.5-34.8C1378.1,226.3,1369.8,211.9,1351.5,211.9z"/>
		</g>
	</g>
</g>
</svg>
