<?xml version="1.0" encoding="utf-8"?>
<!-- Generator: Adobe Illustrator 28.2.0, SVG Export Plug-In . SVG Version: 6.00 Build 0)  -->
<svg version="1.1" id="Layer_1" xmlns="http://www.w3.org/2000/svg" xmlns:xlink="http://www.w3.org/1999/xlink" x="0px" y="0px"
	 viewBox="0 0 1727.5 412.2" style="enable-background:new 0 0 1727.5 412.2;" xml:space="preserve">
<style type="text/css">
	.st0{fill:url(#SVGID_1_);}
	.st1{fill:url(#SVGID_00000092454719415035206410000005001526038110662791_);}
	.st2{fill:url(#SVGID_00000116216744036661482590000012644038008620375451_);}
	.st3{fill:url(#SVGID_00000004545056896924417890000003291198158815016380_);}
	.st4{fill:url(#SVGID_00000156552309531290787130000005966529182367232139_);}
	.st5{fill:url(#SVGID_00000113315987589933491290000013177470861949517444_);}
	.st6{fill:url(#SVGID_00000169557961547958905170000011206694330600201138_);}
	.st7{fill:#FFFFFF;}
</style>
<g>
	
		<linearGradient id="SVGID_1_" gradientUnits="userSpaceOnUse" x1="288.0674" y1="171.7642" x2="475.0568" y2="171.7642" gradientTransform="matrix(1 0 0 -1 0 411.8898)">
		<stop  offset="0" style="stop-color:#19A88C"/>
		<stop  offset="0.9365" style="stop-color:#26CC84"/>
	</linearGradient>
	<path class="st0" d="M594.5,122.4l25.2,115.1c1.5,6.6,3.5,10.9,5.9,13c2.4,2,6.4,3,12,3c3.8,0,6.7-1.1,8.8-3.4
		c2-2.3,3.8-6.5,5.3-12.6l25.2-115.1c2-8.4,4.8-14,8.2-16.8c3.4-2.8,9.3-4.2,17.7-4.2h8.4c8.6,0,14,1.4,16.2,4.2
		c2.2,2.8,2.3,8.4,0.6,16.8L689,292c-5.8,26.7-15.6,46.9-29.2,60.6c-13.6,13.7-31.3,22.2-53.2,25.5c-9.1,1.3-15.2,0.9-18.3-1.1
		c-3-2-5.5-7.5-7.2-16.4l-0.4-1.9c-2-8.1-2.1-13.7-0.2-16.8c1.9-3,6.8-5.5,14.7-7.2c22.6-5.1,36.5-18.3,41.5-39.6
		c-2.3,1-7.5,1.5-15.6,1.5c-14.7,0-25.6-3.9-32.6-11.6s-12.8-21.7-17.3-41.7l-27.8-120.8c-1.8-8.4-1.6-14,0.6-16.8
		c2.2-2.8,7.6-4.2,16.2-4.2h8.4c8.4,0,14.3,1.4,17.7,4.2C589.8,108.4,592.5,114,594.5,122.4z"/>
	
		<linearGradient id="SVGID_00000037651239354963653180000007830354838334304669_" gradientUnits="userSpaceOnUse" x1="387.2118" y1="215.1398" x2="569.3118" y2="215.1398" gradientTransform="matrix(1 0 0 -1 0 411.8898)">
		<stop  offset="0" style="stop-color:#19A88C"/>
		<stop  offset="0.9365" style="stop-color:#26CC84"/>
	</linearGradient>
	<path style="fill:url(#SVGID_00000037651239354963653180000007830354838334304669_);" d="M837.3,296.6c-31,0-54-7-69-21
		s-22.5-35.2-22.5-63.6v-30.5c0-27.2,7.8-48.1,23.4-62.7c15.6-14.6,38.3-21.9,68-21.9c31,0,53.9,7,68.6,21
		c14.7,14,22.1,35.2,22.1,63.6V212c0,27.4-7.7,48.4-23.1,62.9C889.6,289.3,867,296.6,837.3,296.6z M878.1,211.9v-30.5
		c0-14-2.9-23.8-8.8-29.3c-5.8-5.6-16.5-8.4-32-8.4s-26.3,2.9-32.4,8.6c-6.1,5.7-9.1,15.4-9.1,29.2V212c0,13.7,3,23.4,9.1,29.2
		c6.1,5.7,16.9,8.6,32.4,8.6s26.2-2.8,32-8.4C875.1,235.7,878.1,225.9,878.1,211.9z"/>
	
		<linearGradient id="SVGID_00000025432282426610695950000000190464585387379870_" gradientUnits="userSpaceOnUse" x1="707.9765" y1="215.1398" x2="890.0765" y2="215.1398" gradientTransform="matrix(1 0 0 -1 0 411.8898)">
		<stop  offset="0" style="stop-color:#19A88C"/>
		<stop  offset="0.9365" style="stop-color:#26CC84"/>
	</linearGradient>
	<path style="fill:url(#SVGID_00000025432282426610695950000000190464585387379870_);" d="M1042.3,296.6c-31,0-54-7-69-21
		s-22.5-35.2-22.5-63.6v-30.5c0-27.2,7.8-48.1,23.4-62.7c15.6-14.6,38.3-21.9,68-21.9c31,0,53.9,7,68.6,21s22.1,35.2,22.1,63.6V212
		c0,27.4-7.7,48.4-23.1,62.9C1094.6,289.3,1072,296.6,1042.3,296.6z M1083.1,211.9v-30.5c0-14-2.9-23.8-8.8-29.3
		c-5.8-5.6-16.5-8.4-32-8.4s-26.3,2.9-32.4,8.6c-6.1,5.7-9.1,15.4-9.1,29.2V212c0,13.7,3,23.4,9.1,29.2c6.1,5.7,16.9,8.6,32.4,8.6
		s26.2-2.8,32-8.4C1080.2,235.7,1083.1,225.9,1083.1,211.9z"/>
	
		<linearGradient id="SVGID_00000085218880201831252250000004972740078059329469_" gradientUnits="userSpaceOnUse" x1="932.506" y1="217.5398" x2="1105.606" y2="217.5398" gradientTransform="matrix(1 0 0 -1 0 411.8898)">
		<stop  offset="0" style="stop-color:#19A88C"/>
		<stop  offset="0.9365" style="stop-color:#26CC84"/>
	</linearGradient>
	<path style="fill:url(#SVGID_00000085218880201831252250000004972740078059329469_);" d="M1209.6,173.8v96.8
		c0,8.6-1.4,14.4-4.2,17.1c-2.8,2.8-8.5,4.2-17.1,4.2h-7.2c-8.6,0-14.4-1.4-17.1-4.2c-2.8-2.8-4.2-8.5-4.2-17.1v-96.8
		c0-25.2,7.3-44.3,21.9-57.4s36.3-19.6,65-19.6c29.5,0,51.2,6.3,65.2,18.9s21,32,21,58.1v96.8c0,8.6-1.4,14.4-4.2,17.1
		c-2.8,2.8-8.5,4.2-17.1,4.2h-7.2c-8.6,0-14.4-1.4-17.1-4.2c-2.8-2.8-4.2-8.5-4.2-17.1v-96.8c0-11.4-2.5-19.3-7.6-23.6
		s-14.6-6.5-28.6-6.5s-23.6,2.2-29,6.7C1212.3,154.8,1209.6,162.7,1209.6,173.8z"/>
	
		<linearGradient id="SVGID_00000052820759132012068660000008387024659605327031_" gradientUnits="userSpaceOnUse" x1="1170.2234" y1="251.1398" x2="1352.0234" y2="251.1398" gradientTransform="matrix(1 0 0 -1 0 411.8898)">
		<stop  offset="0" style="stop-color:#19A88C"/>
		<stop  offset="0.9365" style="stop-color:#26CC84"/>
	</linearGradient>
	<path style="fill:url(#SVGID_00000052820759132012068660000008387024659605327031_);" d="M1541.2,46.5V213
		c0,27.2-7.9,47.9-23.8,62.1s-38.2,21.3-66.9,21.3c-60.7,0-91.1-27.8-91.1-83.5v-30.5c0-27.7,6.9-48.9,20.6-63.6
		s33.5-22.1,59.5-22.1c24.1,0,41.5,7.2,52.2,21.7v-72c0-8.6,1.4-14.4,4.2-17.1c2.8-2.8,8.5-4.2,17.1-4.2h6.9
		c8.6,0,14.4,1.4,17.1,4.2C1539.8,32.2,1541.2,37.9,1541.2,46.5z M1409.3,181.5V212c0,14.2,2.9,24.1,8.6,29.5
		c5.7,5.5,16.4,8.2,32.2,8.2c15.5,0,26.3-2.9,32.4-8.6c6.1-5.7,9.1-15.4,9.1-29.2v-30.5c0-13.7-3-23.4-9.1-29.2
		c-6.1-5.7-16.9-8.6-32.4-8.6s-26.2,2.8-32,8.4C1412.2,157.7,1409.3,167.5,1409.3,181.5z"/>
	
		<linearGradient id="SVGID_00000029746236444681230760000010326404270340841099_" gradientUnits="userSpaceOnUse" x1="1379.9824" y1="215.1898" x2="1545.3823" y2="215.1898" gradientTransform="matrix(1 0 0 -1 0 411.8898)">
		<stop  offset="0" style="stop-color:#19A88C"/>
		<stop  offset="0.9365" style="stop-color:#26CC84"/>
	</linearGradient>
	<path style="fill:url(#SVGID_00000029746236444681230760000010326404270340841099_);" d="M1727.5,162.4v72.8
		c0,20.8-6.7,36.3-20.2,46.3s-34.3,15.1-62.5,15.1s-49-4.9-62.5-14.7c-13.5-9.8-20.2-25-20.2-45.5c0-39.6,25.8-59.5,77.4-59.5h38.5
		v-14.5c0-8.6-3-14.7-9.1-18.1c-6.1-3.4-16.3-5.1-30.5-5.1c-10.7,0-21.7,0.8-33.2,2.3c-8.4,1.3-14,0.7-17-1.7
		c-2.9-2.4-4.4-7.8-4.4-16.2V122c0-8.1,1.3-13.7,4-16.8c2.7-3,8.2-5.2,16.6-6.5c11.9-1.3,22.2-1.9,30.9-1.9
		c31.3,0,54.4,5.2,69.6,15.6C1720,122.9,1727.5,139.5,1727.5,162.4z M1678,232.5v-18.3h-39.3c-18,0-27.1,7-27.1,21
		c0.8,8.1,3.6,13.5,8.4,16.2s12.8,3.9,24,3.6c11.4,0.3,19.8-1.2,25-4.4C1674.3,247.5,1677.2,241.4,1678,232.5z"/>
</g>
<g>
	
		<linearGradient id="SVGID_00000043446244861735221550000011164986840966859967_" gradientUnits="userSpaceOnUse" x1="83.5225" y1="-6.2474" x2="328.4775" y2="418.0271" gradientTransform="matrix(1 0 0 -1 0 411.8898)">
		<stop  offset="0" style="stop-color:#19A88C"/>
		<stop  offset="0.9365" style="stop-color:#26CC84"/>
	</linearGradient>
	<path style="fill:url(#SVGID_00000043446244861735221550000011164986840966859967_);" d="M312.4,412H99.6C44.6,412,0,367.4,0,312.4
		V99.6C0,44.6,44.6,0,99.6,0h212.8c55,0,99.6,44.6,99.6,99.6v212.8C412,367.4,367.4,412,312.4,412z"/>
	<path class="st7" d="M154.8,270.3c-0.5-8.3,0.7-17.6-1.1-26.8c-3.3-17.1-12.4-30.1-27.3-39c-9.3-5.6-18.8-10.8-28.2-16.2
		c-20-11.6-30.6-32.2-27.2-53c3.6-22.3,19.7-38.7,42.9-43.2c11.4-2.2,22.1,0.1,32.2,5.5c9.7,5.3,19.3,11,28.9,16.6
		c20.8,12.2,41.6,12.1,62.3-0.1c9.1-5.4,18.2-10.8,27.5-15.8c25.6-14,55.9-5.5,70.1,19.4c13.9,24.5,5.7,54.6-19.2,69.5
		c-9.5,5.7-19.3,11-28.8,16.7c-19.1,11.2-28.9,28.1-29.5,50.2c-0.3,11.6,0.1,23.3-0.1,34.9c-0.6,28.2-23.6,51-51.3,50.9
		c-27.9-0.1-50.6-22.8-51-51.1C154.7,282.9,154.8,277,154.8,270.3z M187.4,268c0,5.6,0,11.1,0,16.7c0,14.1,7.2,22.7,18.8,22.6
		c11.4-0.1,18.5-8.9,18.5-23c0-10-0.1-20.1,0.1-30.2c0.8-34.2,15.9-60.2,45.1-78c9.2-5.6,18.8-10.7,28.1-16.3
		c10.8-6.5,14-17.2,8.1-26.9c-5.6-9.3-16.1-11.5-27.1-5.4c-7.4,4.1-14.8,8.3-22,12.7c-33.9,20.8-67.8,21-101.7,0.2
		c-7.7-4.7-15.5-9-23.3-13.5c-4.5-2.6-9.3-3.8-14.5-2.4c-7.6,2-12.5,6.9-14,14.6c-1.5,8,1.3,14.8,8.3,19.1
		c10.6,6.5,21.5,12.4,32.1,18.9c20.6,12.5,33.9,30.6,40.4,53.8C187.7,243.1,187.5,255.5,187.4,268z"/>
</g>
</svg>
