<?xml version="1.0" encoding="utf-8"?>
<!-- Generator: Adobe Illustrator 28.2.0, SVG Export Plug-In . SVG Version: 6.00 Build 0)  -->
<svg version="1.1" id="Layer_1" xmlns="http://www.w3.org/2000/svg" xmlns:xlink="http://www.w3.org/1999/xlink" x="0px" y="0px"
	 viewBox="0 0 412 412" style="enable-background:new 0 0 412 412;" xml:space="preserve">
<style type="text/css">
	.st0{fill:url(#SVGID_1_);}
	.st1{fill:#FFFFFF;}
</style>
<linearGradient id="SVGID_1_" gradientUnits="userSpaceOnUse" x1="83.5225" y1="-6.2474" x2="328.4775" y2="418.0271" gradientTransform="matrix(1 0 0 -1 0 411.8898)">
	<stop  offset="0" style="stop-color:#19A88C"/>
	<stop  offset="0.9365" style="stop-color:#26CC84"/>
</linearGradient>
<path class="st0" d="M312.4,412H99.6C44.6,412,0,367.4,0,312.4V99.6C0,44.6,44.6,0,99.6,0h212.8c55,0,99.6,44.6,99.6,99.6v212.8
	C412,367.4,367.4,412,312.4,412z"/>
<path class="st1" d="M154.8,270.3c-0.5-8.3,0.7-17.6-1.1-26.8c-3.3-17.1-12.4-30.1-27.3-39c-9.3-5.6-18.8-10.8-28.2-16.2
	c-20-11.6-30.6-32.2-27.2-53c3.6-22.3,19.7-38.7,42.9-43.2c11.4-2.2,22.1,0.1,32.2,5.5c9.7,5.3,19.3,11,28.9,16.6
	c20.8,12.2,41.6,12.1,62.3-0.1c9.1-5.4,18.2-10.8,27.5-15.8c25.6-14,55.9-5.5,70.1,19.4c13.9,24.5,5.7,54.6-19.2,69.5
	c-9.5,5.7-19.3,11-28.8,16.7c-19.1,11.2-28.9,28.1-29.5,50.2c-0.3,11.6,0.1,23.3-0.1,34.9c-0.6,28.2-23.6,51-51.3,50.9
	c-27.9-0.1-50.6-22.8-51-51.1C154.7,282.9,154.8,277,154.8,270.3z M187.4,268c0,5.6,0,11.1,0,16.7c0,14.1,7.2,22.7,18.8,22.6
	c11.4-0.1,18.5-8.9,18.5-23c0-10-0.1-20.1,0.1-30.2c0.8-34.2,15.9-60.2,45.1-78c9.2-5.6,18.8-10.7,28.1-16.3
	c10.8-6.5,14-17.2,8.1-26.9c-5.6-9.3-16.1-11.5-27.1-5.4c-7.4,4.1-14.8,8.3-22,12.7c-33.9,20.8-67.8,21-101.7,0.2
	c-7.7-4.7-15.5-9-23.3-13.5c-4.5-2.6-9.3-3.8-14.5-2.4c-7.6,2-12.5,6.9-14,14.6c-1.5,8,1.3,14.8,8.3,19.1
	c10.6,6.5,21.5,12.4,32.1,18.9c20.6,12.5,33.9,30.6,40.4,53.8C187.7,243.1,187.5,255.5,187.4,268z"/>
</svg>
