<?xml version="1.0" encoding="utf-8"?>
<!-- Generator: Adobe Illustrator 25.4.1, SVG Export Plug-In . SVG Version: 6.00 Build 0)  -->
<svg version="1.1" id="Layer_1" xmlns="http://www.w3.org/2000/svg" xmlns:xlink="http://www.w3.org/1999/xlink" x="0px" y="0px"
	 viewBox="0 0 412 412" style="enable-background:new 0 0 412 412;" xml:space="preserve">
<style type="text/css">
	.st0{fill:#F2F2F2;}
	.st1{fill:#DBDBDB;}
</style>
<rect class="st0" width="412" height="412"/>
<path class="st1" d="M188.8,224.5c-0.2-2.8,0.2-5.9-0.4-9c-1.1-5.8-4.2-10.1-9.2-13.1c-3.1-1.9-6.3-3.6-9.5-5.5
	c-6.7-3.9-10.3-10.9-9.2-17.9c1.2-7.5,6.6-13,14.4-14.6c3.8-0.7,7.5,0,10.8,1.9c3.3,1.8,6.5,3.7,9.7,5.6c7,4.1,14,4.1,21,0
	c3.1-1.8,6.1-3.6,9.3-5.3c8.6-4.7,18.8-1.9,23.6,6.5c4.7,8.3,1.9,18.4-6.5,23.4c-3.2,1.9-6.5,3.7-9.7,5.6c-6.4,3.8-9.8,9.5-9.9,16.9
	c-0.1,3.9,0,7.8,0,11.8c-0.2,9.5-8,17.2-17.3,17.2c-9.4,0-17-7.7-17.2-17.2C188.7,228.7,188.8,226.7,188.8,224.5z M199.7,223.7
	c0,1.9,0,3.7,0,5.6c0,4.7,2.4,7.6,6.3,7.6c3.8,0,6.2-3,6.2-7.7c0-3.4-0.1-6.8,0-10.2c0.3-11.5,5.4-20.3,15.2-26.3
	c3.1-1.9,6.3-3.6,9.5-5.5c3.6-2.2,4.7-5.8,2.7-9.1c-1.9-3.1-5.4-3.9-9.1-1.8c-2.5,1.4-5,2.8-7.4,4.3c-11.4,7-22.8,7.1-34.3,0.1
	c-2.6-1.6-5.2-3-7.9-4.5c-1.5-0.9-3.1-1.3-4.9-0.8c-2.6,0.7-4.2,2.3-4.7,4.9c-0.5,2.7,0.4,5,2.8,6.4c3.6,2.2,7.2,4.2,10.8,6.4
	c6.9,4.2,11.4,10.3,13.6,18.1C199.8,215.3,199.8,219.5,199.7,223.7z"/>
</svg>
